<svg width="650" height="649" viewBox="0 0 650 649" fill="none" xmlns="http://www.w3.org/2000/svg">
<path d="M324.988 0.187988C145.788 0.187988 0.588013 145.388 0.588013 324.588C0.588013 503.788 145.788 648.988 324.988 648.988C504.188 648.988 649.388 503.788 649.388 324.588C649.388 145.388 504.188 0.187988 324.988 0.187988ZM509.789 358.188C509.789 369.188 500.789 378.188 489.789 378.188H398.589C387.589 378.188 378.589 387.188 378.589 398.188V489.388C378.589 500.388 369.589 509.388 358.589 509.388H291.389C280.389 509.388 271.389 500.388 271.389 489.388V398.188C271.389 387.188 262.389 378.188 251.389 378.188H150.188C144.688 378.188 140.188 373.688 140.188 368.188V290.989C140.188 279.989 149.188 270.989 160.188 270.989H251.389C262.389 270.989 271.389 261.989 271.389 250.989V159.789C271.389 148.789 280.389 139.789 291.389 139.789H358.589C369.589 139.789 378.589 148.789 378.589 159.789V250.989C378.589 261.989 387.589 270.989 398.589 270.989H489.789C500.789 270.989 509.789 279.989 509.789 290.989V358.188V358.188Z" fill="#C2BFBF"/>
</svg>
